<mxfile host="app.diagrams.net" agent="Mozilla/5.0 (Windows NT 10.0; Win64; x64) AppleWebKit/537.36 (KHTML, like Gecko) Chrome/126.0.0.0 Safari/537.36" version="28.1.0">
  <diagram name="Tổng quan usecase" id="YtuED7rXSWkW6mltu2dS">
    <mxGraphModel dx="3809" dy="1382" grid="1" gridSize="10" guides="1" tooltips="1" connect="1" arrows="1" fold="1" page="1" pageScale="1" pageWidth="827" pageHeight="1169" background="#121212" math="0" shadow="0">
      <root>
        <mxCell id="0" />
        <mxCell id="1" parent="0" />
        <mxCell id="6rnab73OeRJo71UnPsnl-2" style="rounded=0;orthogonalLoop=1;jettySize=auto;html=1;exitX=0.5;exitY=0.5;exitDx=0;exitDy=0;exitPerimeter=0;entryX=0;entryY=1;entryDx=0;entryDy=0;fontSize=10;strokeColor=#FFFFFF;fillColor=#FFFFFF;" parent="1" source="6rnab73OeRJo71UnPsnl-13" target="6rnab73OeRJo71UnPsnl-35" edge="1">
          <mxGeometry relative="1" as="geometry" />
        </mxCell>
        <mxCell id="6rnab73OeRJo71UnPsnl-3" style="rounded=0;orthogonalLoop=1;jettySize=auto;html=1;exitX=0.5;exitY=0.5;exitDx=0;exitDy=0;exitPerimeter=0;entryX=0.5;entryY=1;entryDx=0;entryDy=0;fontSize=10;strokeColor=#FFFFFF;fillColor=#FFFFFF;" parent="1" source="6rnab73OeRJo71UnPsnl-13" target="6rnab73OeRJo71UnPsnl-34" edge="1">
          <mxGeometry relative="1" as="geometry" />
        </mxCell>
        <mxCell id="6rnab73OeRJo71UnPsnl-4" style="rounded=0;orthogonalLoop=1;jettySize=auto;html=1;exitX=0.5;exitY=0.5;exitDx=0;exitDy=0;exitPerimeter=0;entryX=0;entryY=0.5;entryDx=0;entryDy=0;fontSize=10;strokeColor=#FFFFFF;fillColor=#FFFFFF;" parent="1" source="6rnab73OeRJo71UnPsnl-13" target="6rnab73OeRJo71UnPsnl-36" edge="1">
          <mxGeometry relative="1" as="geometry" />
        </mxCell>
        <mxCell id="6rnab73OeRJo71UnPsnl-5" style="rounded=0;orthogonalLoop=1;jettySize=auto;html=1;exitX=0.5;exitY=0.5;exitDx=0;exitDy=0;exitPerimeter=0;entryX=0;entryY=0.5;entryDx=0;entryDy=0;fontSize=10;strokeColor=#FFFFFF;fillColor=#FFFFFF;" parent="1" source="6rnab73OeRJo71UnPsnl-13" target="6rnab73OeRJo71UnPsnl-44" edge="1">
          <mxGeometry relative="1" as="geometry" />
        </mxCell>
        <mxCell id="6rnab73OeRJo71UnPsnl-6" style="rounded=0;orthogonalLoop=1;jettySize=auto;html=1;exitX=0.5;exitY=0.5;exitDx=0;exitDy=0;exitPerimeter=0;entryX=0;entryY=0.5;entryDx=0;entryDy=0;fontSize=10;strokeColor=#FFFFFF;fillColor=#FFFFFF;" parent="1" source="6rnab73OeRJo71UnPsnl-13" target="6rnab73OeRJo71UnPsnl-40" edge="1">
          <mxGeometry relative="1" as="geometry" />
        </mxCell>
        <mxCell id="6rnab73OeRJo71UnPsnl-7" style="rounded=0;orthogonalLoop=1;jettySize=auto;html=1;exitX=0.5;exitY=0.5;exitDx=0;exitDy=0;exitPerimeter=0;entryX=0.5;entryY=0;entryDx=0;entryDy=0;fontSize=10;strokeColor=#FFFFFF;fillColor=#FFFFFF;" parent="1" source="6rnab73OeRJo71UnPsnl-13" target="6rnab73OeRJo71UnPsnl-42" edge="1">
          <mxGeometry relative="1" as="geometry" />
        </mxCell>
        <mxCell id="6rnab73OeRJo71UnPsnl-9" style="rounded=0;orthogonalLoop=1;jettySize=auto;html=1;exitX=0.5;exitY=0.5;exitDx=0;exitDy=0;exitPerimeter=0;entryX=0;entryY=0.5;entryDx=0;entryDy=0;fontSize=10;strokeColor=#FFFFFF;fillColor=#FFFFFF;" parent="1" source="6rnab73OeRJo71UnPsnl-13" target="6rnab73OeRJo71UnPsnl-45" edge="1">
          <mxGeometry relative="1" as="geometry" />
        </mxCell>
        <mxCell id="6rnab73OeRJo71UnPsnl-10" style="rounded=0;orthogonalLoop=1;jettySize=auto;html=1;exitX=0.5;exitY=0.5;exitDx=0;exitDy=0;exitPerimeter=0;entryX=0;entryY=0.5;entryDx=0;entryDy=0;fontSize=10;strokeColor=#FFFFFF;fillColor=#FFFFFF;" parent="1" source="6rnab73OeRJo71UnPsnl-13" target="emIFQkIN_60Ksdg_QMY8-164" edge="1">
          <mxGeometry relative="1" as="geometry" />
        </mxCell>
        <mxCell id="6rnab73OeRJo71UnPsnl-11" style="rounded=0;orthogonalLoop=1;jettySize=auto;html=1;exitX=0.5;exitY=0.5;exitDx=0;exitDy=0;exitPerimeter=0;entryX=0;entryY=0.5;entryDx=0;entryDy=0;strokeColor=#FFFFFF;fillColor=#FFFFFF;" parent="1" source="6rnab73OeRJo71UnPsnl-13" target="6rnab73OeRJo71UnPsnl-49" edge="1">
          <mxGeometry relative="1" as="geometry" />
        </mxCell>
        <mxCell id="6rnab73OeRJo71UnPsnl-13" value="&lt;font style=&quot;color: rgb(255, 255, 255);&quot;&gt;Bệnh nhân&lt;/font&gt;" style="shape=umlActor;verticalLabelPosition=bottom;verticalAlign=top;html=1;outlineConnect=0;fontSize=10;strokeColor=#FFFFFF;fillColor=#121212;" parent="1" vertex="1">
          <mxGeometry x="-260" y="1480" width="20" height="40" as="geometry" />
        </mxCell>
        <mxCell id="6rnab73OeRJo71UnPsnl-22" style="rounded=0;orthogonalLoop=1;jettySize=auto;html=1;exitX=0.5;exitY=0.5;exitDx=0;exitDy=0;exitPerimeter=0;entryX=1;entryY=0.5;entryDx=0;entryDy=0;fontSize=10;strokeColor=#FFFFFF;fillColor=#FFFFFF;" parent="1" source="6rnab73OeRJo71UnPsnl-28" target="6rnab73OeRJo71UnPsnl-55" edge="1">
          <mxGeometry relative="1" as="geometry" />
        </mxCell>
        <mxCell id="6rnab73OeRJo71UnPsnl-23" style="rounded=0;orthogonalLoop=1;jettySize=auto;html=1;exitX=0.5;exitY=0.5;exitDx=0;exitDy=0;exitPerimeter=0;entryX=1;entryY=0.5;entryDx=0;entryDy=0;fontSize=10;strokeColor=#FFFFFF;fillColor=#FFFFFF;" parent="1" source="6rnab73OeRJo71UnPsnl-28" target="6rnab73OeRJo71UnPsnl-51" edge="1">
          <mxGeometry relative="1" as="geometry" />
        </mxCell>
        <mxCell id="6rnab73OeRJo71UnPsnl-24" style="rounded=0;orthogonalLoop=1;jettySize=auto;html=1;exitX=0.5;exitY=0.5;exitDx=0;exitDy=0;exitPerimeter=0;entryX=1;entryY=0;entryDx=0;entryDy=0;fontSize=10;strokeColor=#FFFFFF;fillColor=#FFFFFF;" parent="1" source="6rnab73OeRJo71UnPsnl-28" target="6rnab73OeRJo71UnPsnl-50" edge="1">
          <mxGeometry relative="1" as="geometry" />
        </mxCell>
        <mxCell id="6rnab73OeRJo71UnPsnl-25" style="rounded=0;orthogonalLoop=1;jettySize=auto;html=1;exitX=0.5;exitY=0.5;exitDx=0;exitDy=0;exitPerimeter=0;entryX=1;entryY=1;entryDx=0;entryDy=0;fontSize=10;strokeColor=#FFFFFF;fillColor=#FFFFFF;" parent="1" source="6rnab73OeRJo71UnPsnl-28" target="6rnab73OeRJo71UnPsnl-53" edge="1">
          <mxGeometry relative="1" as="geometry" />
        </mxCell>
        <mxCell id="6rnab73OeRJo71UnPsnl-26" style="rounded=0;orthogonalLoop=1;jettySize=auto;html=1;exitX=0.5;exitY=0.5;exitDx=0;exitDy=0;exitPerimeter=0;entryX=1;entryY=0.5;entryDx=0;entryDy=0;fontSize=10;strokeColor=#FFFFFF;fillColor=#FFFFFF;" parent="1" source="6rnab73OeRJo71UnPsnl-28" target="6rnab73OeRJo71UnPsnl-54" edge="1">
          <mxGeometry relative="1" as="geometry" />
        </mxCell>
        <mxCell id="6rnab73OeRJo71UnPsnl-27" style="rounded=0;orthogonalLoop=1;jettySize=auto;html=1;exitX=0.5;exitY=0.5;exitDx=0;exitDy=0;exitPerimeter=0;entryX=1;entryY=0.5;entryDx=0;entryDy=0;fontSize=10;strokeColor=#FFFFFF;fillColor=#FFFFFF;" parent="1" source="6rnab73OeRJo71UnPsnl-28" target="emIFQkIN_60Ksdg_QMY8-182" edge="1">
          <mxGeometry relative="1" as="geometry" />
        </mxCell>
        <mxCell id="6rnab73OeRJo71UnPsnl-28" value="&lt;font style=&quot;color: rgb(255, 255, 255);&quot;&gt;Quản trị viên&lt;/font&gt;" style="shape=umlActor;verticalLabelPosition=bottom;verticalAlign=top;html=1;outlineConnect=0;fontSize=10;strokeColor=#FFFFFF;fillColor=#121212;" parent="1" vertex="1">
          <mxGeometry x="700" y="1747.5" width="20" height="40" as="geometry" />
        </mxCell>
        <mxCell id="6rnab73OeRJo71UnPsnl-34" value="&lt;span&gt;&lt;font style=&quot;color: rgb(255, 255, 255);&quot;&gt;Đăng xuất&amp;nbsp;&lt;/font&gt;&lt;/span&gt;" style="ellipse;whiteSpace=wrap;html=1;fontSize=10;strokeColor=#FFFFFF;fillColor=#121212;" parent="1" vertex="1">
          <mxGeometry x="-170" y="1340" width="70" height="40" as="geometry" />
        </mxCell>
        <mxCell id="6rnab73OeRJo71UnPsnl-35" value="&lt;span&gt;&lt;font style=&quot;color: rgb(255, 255, 255);&quot;&gt;Quản lý hồ sơ cá nhân&lt;/font&gt;&lt;/span&gt;" style="ellipse;whiteSpace=wrap;html=1;fontSize=10;strokeColor=#FFFFFF;fillColor=#121212;" parent="1" vertex="1">
          <mxGeometry x="-70" y="1340" width="70" height="40" as="geometry" />
        </mxCell>
        <mxCell id="6rnab73OeRJo71UnPsnl-36" value="&lt;span&gt;&lt;font style=&quot;color: rgb(255, 255, 255);&quot;&gt;Đặt lịch khám&amp;nbsp;&lt;/font&gt;&lt;/span&gt;" style="ellipse;whiteSpace=wrap;html=1;fontSize=10;strokeColor=#FFFFFF;fillColor=#121212;" parent="1" vertex="1">
          <mxGeometry x="-40" y="1635" width="90" height="30" as="geometry" />
        </mxCell>
        <mxCell id="6rnab73OeRJo71UnPsnl-38" value="&lt;font style=&quot;color: rgb(255, 255, 255);&quot;&gt;Hủy / Đổi lịch khám&lt;/font&gt;" style="ellipse;whiteSpace=wrap;html=1;fontSize=10;strokeColor=#FFFFFF;fillColor=#121212;" parent="1" vertex="1">
          <mxGeometry x="145" y="1570" width="70" height="40" as="geometry" />
        </mxCell>
        <mxCell id="6rnab73OeRJo71UnPsnl-40" value="&lt;font style=&quot;color: rgb(255, 255, 255);&quot;&gt;Xem lịch khám&lt;/font&gt;" style="ellipse;whiteSpace=wrap;html=1;fontSize=10;strokeColor=#FFFFFF;fillColor=#121212;" parent="1" vertex="1">
          <mxGeometry x="-25" y="1567.5" width="70" height="45" as="geometry" />
        </mxCell>
        <mxCell id="6rnab73OeRJo71UnPsnl-42" value="&lt;font style=&quot;color: rgb(255, 255, 255);&quot;&gt;Trò chuyện với Chatbot&lt;/font&gt;" style="ellipse;whiteSpace=wrap;html=1;fontSize=10;strokeColor=#FFFFFF;fillColor=#121212;" parent="1" vertex="1">
          <mxGeometry x="-90" y="1770" width="80" height="50" as="geometry" />
        </mxCell>
        <mxCell id="6rnab73OeRJo71UnPsnl-43" value="&lt;font style=&quot;color: rgb(255, 255, 255);&quot;&gt;Hỏi về triệu chứng&lt;/font&gt;" style="ellipse;whiteSpace=wrap;html=1;fontSize=10;strokeColor=#FFFFFF;fillColor=#121212;" parent="1" vertex="1">
          <mxGeometry x="60" y="1754" width="80" height="40" as="geometry" />
        </mxCell>
        <mxCell id="6rnab73OeRJo71UnPsnl-44" value="&lt;font style=&quot;color: rgb(255, 255, 255);&quot;&gt;Nhận thông báo&lt;/font&gt;" style="ellipse;whiteSpace=wrap;html=1;fontSize=10;strokeColor=#FFFFFF;fillColor=#121212;" parent="1" vertex="1">
          <mxGeometry x="-30" y="1680" width="80" height="50" as="geometry" />
        </mxCell>
        <mxCell id="6rnab73OeRJo71UnPsnl-45" value="&lt;font style=&quot;color: rgb(255, 255, 255);&quot;&gt;&amp;nbsp;Xem / Tìm kiếm sản phẩm&lt;/font&gt;" style="ellipse;whiteSpace=wrap;html=1;fontSize=10;strokeColor=#FFFFFF;fillColor=#121212;" parent="1" vertex="1">
          <mxGeometry x="-40" y="1449.5" width="80" height="50" as="geometry" />
        </mxCell>
        <mxCell id="6rnab73OeRJo71UnPsnl-46" value="&lt;font style=&quot;color: rgb(255, 255, 255);&quot;&gt;Tạo đơn hàng&lt;/font&gt;" style="ellipse;whiteSpace=wrap;html=1;fontSize=10;strokeColor=#FFFFFF;fillColor=#121212;" parent="1" vertex="1">
          <mxGeometry x="270" y="1517.5" width="80" height="40" as="geometry" />
        </mxCell>
        <mxCell id="6rnab73OeRJo71UnPsnl-47" value="&lt;font style=&quot;color: rgb(255, 255, 255);&quot;&gt;Thanh toán đơn hàng&lt;/font&gt;" style="ellipse;whiteSpace=wrap;html=1;fontSize=10;strokeColor=#FFFFFF;fillColor=#121212;" parent="1" vertex="1">
          <mxGeometry x="120" y="1510" width="80" height="40" as="geometry" />
        </mxCell>
        <mxCell id="6rnab73OeRJo71UnPsnl-48" value="&lt;font style=&quot;color: rgb(255, 255, 255);&quot;&gt;Theo dõi đơn hàng&lt;/font&gt;" style="ellipse;whiteSpace=wrap;html=1;fontSize=10;strokeColor=#FFFFFF;fillColor=#121212;" parent="1" vertex="1">
          <mxGeometry x="270" y="1394" width="80" height="50" as="geometry" />
        </mxCell>
        <mxCell id="6rnab73OeRJo71UnPsnl-49" value="&lt;font&gt;&lt;font style=&quot;color: rgb(255, 255, 255);&quot;&gt;Xem bài viết / Blog&lt;/font&gt;&lt;br&gt;&lt;/font&gt;" style="ellipse;whiteSpace=wrap;html=1;fontSize=10;strokeColor=#FFFFFF;fillColor=#121212;" parent="1" vertex="1">
          <mxGeometry x="-35" y="1390" width="80" height="40" as="geometry" />
        </mxCell>
        <mxCell id="6rnab73OeRJo71UnPsnl-50" value="&lt;font style=&quot;color: rgb(255, 255, 255);&quot;&gt;Quản lý bài viết / blog&lt;/font&gt;" style="ellipse;whiteSpace=wrap;html=1;fontSize=10;strokeColor=#FFFFFF;fillColor=#121212;" parent="1" vertex="1">
          <mxGeometry x="580" y="1982.5" width="80" height="50" as="geometry" />
        </mxCell>
        <mxCell id="6rnab73OeRJo71UnPsnl-51" value="&lt;font style=&quot;color: rgb(255, 255, 255);&quot;&gt;Quản lý người dùng &amp;amp; phân quyền&lt;/font&gt;" style="ellipse;whiteSpace=wrap;html=1;fontSize=10;strokeColor=#FFFFFF;fillColor=#121212;" parent="1" vertex="1">
          <mxGeometry x="425" y="1887.5" width="100" height="50" as="geometry" />
        </mxCell>
        <mxCell id="6rnab73OeRJo71UnPsnl-52" style="edgeStyle=orthogonalEdgeStyle;rounded=0;orthogonalLoop=1;jettySize=auto;html=1;exitX=0.5;exitY=1;exitDx=0;exitDy=0;strokeColor=#FFFFFF;fillColor=#FFFFFF;" parent="1" source="6rnab73OeRJo71UnPsnl-53" edge="1">
          <mxGeometry relative="1" as="geometry">
            <mxPoint x="470" y="1797.5" as="targetPoint" />
          </mxGeometry>
        </mxCell>
        <mxCell id="6rnab73OeRJo71UnPsnl-53" value="&lt;font style=&quot;color: rgb(255, 255, 255);&quot;&gt;Quản lý bác sĩ &amp;amp; lịch khám&lt;/font&gt;" style="ellipse;whiteSpace=wrap;html=1;fontSize=10;strokeColor=#FFFFFF;fillColor=#121212;" parent="1" vertex="1">
          <mxGeometry x="430" y="1767.5" width="90" height="40" as="geometry" />
        </mxCell>
        <mxCell id="6rnab73OeRJo71UnPsnl-54" value="&lt;font style=&quot;color: rgb(255, 255, 255);&quot;&gt;Quản lý sản phẩm / dịch vụ&lt;/font&gt;" style="ellipse;whiteSpace=wrap;html=1;fontSize=10;strokeColor=#FFFFFF;fillColor=#121212;" parent="1" vertex="1">
          <mxGeometry x="460" y="1962.5" width="80" height="40" as="geometry" />
        </mxCell>
        <mxCell id="6rnab73OeRJo71UnPsnl-55" value="&lt;font style=&quot;color: rgb(255, 255, 255);&quot;&gt;Quản lý đơn hàng &amp;amp; thanh toán&lt;/font&gt;" style="ellipse;whiteSpace=wrap;html=1;fontSize=10;strokeColor=#FFFFFF;fillColor=#121212;" parent="1" vertex="1">
          <mxGeometry x="400" y="1827.5" width="80" height="50" as="geometry" />
        </mxCell>
        <mxCell id="6rnab73OeRJo71UnPsnl-56" value="&lt;font style=&quot;color: rgb(255, 255, 255);&quot;&gt;Truy vấn dữ liệu bằng ngôn ngữ tự nhiên&lt;/font&gt;" style="ellipse;whiteSpace=wrap;html=1;fontSize=10;strokeColor=#FFFFFF;fillColor=#121212;" parent="1" vertex="1">
          <mxGeometry x="260" y="1650" width="110" height="55" as="geometry" />
        </mxCell>
        <mxCell id="6rnab73OeRJo71UnPsnl-57" value="&lt;font style=&quot;color: rgb(255, 255, 255);&quot;&gt;Xem logs&lt;/font&gt;" style="ellipse;whiteSpace=wrap;html=1;fontSize=10;strokeColor=#FFFFFF;fillColor=#121212;" parent="1" vertex="1">
          <mxGeometry x="682" y="1947.5" width="85" height="50" as="geometry" />
        </mxCell>
        <mxCell id="6rnab73OeRJo71UnPsnl-58" value="&lt;font style=&quot;color: rgb(255, 255, 255);&quot;&gt;Hỏi về sản phẩm&lt;/font&gt;" style="ellipse;whiteSpace=wrap;html=1;fontSize=10;strokeColor=#FFFFFF;fillColor=#121212;" parent="1" vertex="1">
          <mxGeometry x="80" y="1880" width="80" height="50" as="geometry" />
        </mxCell>
        <mxCell id="6rnab73OeRJo71UnPsnl-60" value="&lt;font style=&quot;color: rgb(255, 255, 255);&quot;&gt;Đặt lịch khám qua Chatbot&lt;/font&gt;" style="ellipse;whiteSpace=wrap;html=1;fontSize=10;strokeColor=#FFFFFF;fillColor=#121212;" parent="1" vertex="1">
          <mxGeometry x="80" y="1810" width="80" height="50" as="geometry" />
        </mxCell>
        <mxCell id="6rnab73OeRJo71UnPsnl-62" value="&lt;font style=&quot;color: rgb(255, 255, 255);&quot;&gt;&amp;lt;&amp;lt;include&amp;gt;&amp;gt;&lt;/font&gt;" style="html=1;verticalAlign=bottom;labelBackgroundColor=none;endArrow=open;endFill=0;dashed=1;rounded=0;exitX=1;exitY=0.5;exitDx=0;exitDy=0;entryX=0;entryY=0.5;entryDx=0;entryDy=0;fontSize=10;strokeColor=#FFFFFF;fillColor=#FFFFFF;" parent="1" source="6rnab73OeRJo71UnPsnl-47" target="6rnab73OeRJo71UnPsnl-46" edge="1">
          <mxGeometry width="160" relative="1" as="geometry">
            <mxPoint x="370" y="1655" as="sourcePoint" />
            <mxPoint x="530" y="1655" as="targetPoint" />
          </mxGeometry>
        </mxCell>
        <mxCell id="6rnab73OeRJo71UnPsnl-63" style="rounded=0;orthogonalLoop=1;jettySize=auto;html=1;exitX=0.5;exitY=0.5;exitDx=0;exitDy=0;exitPerimeter=0;entryX=0.5;entryY=0;entryDx=0;entryDy=0;fontSize=10;strokeColor=#FFFFFF;fillColor=#FFFFFF;" parent="1" source="6rnab73OeRJo71UnPsnl-28" target="6rnab73OeRJo71UnPsnl-57" edge="1">
          <mxGeometry relative="1" as="geometry" />
        </mxCell>
        <mxCell id="6rnab73OeRJo71UnPsnl-64" value="&lt;font style=&quot;color: rgb(255, 255, 255);&quot;&gt;&amp;lt;&amp;lt;extend&amp;gt;&amp;gt;&lt;/font&gt;" style="html=1;verticalAlign=bottom;labelBackgroundColor=none;endArrow=open;endFill=0;dashed=1;rounded=0;exitX=0.5;exitY=0.9;exitDx=0;exitDy=0;entryX=0.5;entryY=0;entryDx=0;entryDy=0;exitPerimeter=0;strokeColor=#FFFFFF;fillColor=#FFFFFF;" parent="1" source="6rnab73OeRJo71UnPsnl-48" target="6rnab73OeRJo71UnPsnl-46" edge="1">
          <mxGeometry x="-0.1497" y="-3" width="160" relative="1" as="geometry">
            <mxPoint x="380" y="1475" as="sourcePoint" />
            <mxPoint x="540" y="1475" as="targetPoint" />
            <mxPoint as="offset" />
          </mxGeometry>
        </mxCell>
        <mxCell id="emIFQkIN_60Ksdg_QMY8-71" style="rounded=0;orthogonalLoop=1;jettySize=auto;html=1;exitX=1;exitY=0.3333333333333333;exitDx=0;exitDy=0;exitPerimeter=0;entryX=0.5;entryY=1;entryDx=0;entryDy=0;fontSize=10;strokeColor=#FFFFFF;fillColor=#FFFFFF;" parent="1" source="emIFQkIN_60Ksdg_QMY8-83" target="emIFQkIN_60Ksdg_QMY8-103" edge="1">
          <mxGeometry relative="1" as="geometry" />
        </mxCell>
        <mxCell id="emIFQkIN_60Ksdg_QMY8-72" style="rounded=0;orthogonalLoop=1;jettySize=auto;html=1;exitX=0.75;exitY=0.1;exitDx=0;exitDy=0;exitPerimeter=0;entryX=0;entryY=1;entryDx=0;entryDy=0;fontSize=10;strokeColor=#FFFFFF;fillColor=#FFFFFF;" parent="1" source="emIFQkIN_60Ksdg_QMY8-83" target="emIFQkIN_60Ksdg_QMY8-105" edge="1">
          <mxGeometry relative="1" as="geometry" />
        </mxCell>
        <mxCell id="emIFQkIN_60Ksdg_QMY8-73" style="rounded=0;orthogonalLoop=1;jettySize=auto;html=1;exitX=1;exitY=0.3333333333333333;exitDx=0;exitDy=0;exitPerimeter=0;entryX=0;entryY=0.5;entryDx=0;entryDy=0;fontSize=10;strokeColor=#FFFFFF;fillColor=#FFFFFF;" parent="1" source="emIFQkIN_60Ksdg_QMY8-83" target="emIFQkIN_60Ksdg_QMY8-104" edge="1">
          <mxGeometry relative="1" as="geometry" />
        </mxCell>
        <mxCell id="emIFQkIN_60Ksdg_QMY8-74" style="rounded=0;orthogonalLoop=1;jettySize=auto;html=1;exitX=1;exitY=0.3333333333333333;exitDx=0;exitDy=0;exitPerimeter=0;entryX=0;entryY=1;entryDx=0;entryDy=0;fontSize=10;strokeColor=#FFFFFF;fillColor=#FFFFFF;" parent="1" source="emIFQkIN_60Ksdg_QMY8-83" target="emIFQkIN_60Ksdg_QMY8-106" edge="1">
          <mxGeometry relative="1" as="geometry" />
        </mxCell>
        <mxCell id="emIFQkIN_60Ksdg_QMY8-75" style="rounded=0;orthogonalLoop=1;jettySize=auto;html=1;exitX=1;exitY=0.3333333333333333;exitDx=0;exitDy=0;exitPerimeter=0;entryX=0;entryY=0.5;entryDx=0;entryDy=0;fontSize=10;strokeColor=#FFFFFF;fillColor=#FFFFFF;" parent="1" source="emIFQkIN_60Ksdg_QMY8-83" target="emIFQkIN_60Ksdg_QMY8-114" edge="1">
          <mxGeometry relative="1" as="geometry" />
        </mxCell>
        <mxCell id="emIFQkIN_60Ksdg_QMY8-76" style="rounded=0;orthogonalLoop=1;jettySize=auto;html=1;exitX=1;exitY=0.3333333333333333;exitDx=0;exitDy=0;exitPerimeter=0;entryX=-0.002;entryY=0.73;entryDx=0;entryDy=0;fontSize=10;entryPerimeter=0;strokeColor=#FFFFFF;fillColor=#FFFFFF;" parent="1" source="emIFQkIN_60Ksdg_QMY8-83" target="emIFQkIN_60Ksdg_QMY8-110" edge="1">
          <mxGeometry relative="1" as="geometry" />
        </mxCell>
        <mxCell id="emIFQkIN_60Ksdg_QMY8-77" style="rounded=0;orthogonalLoop=1;jettySize=auto;html=1;exitX=0.25;exitY=0.1;exitDx=0;exitDy=0;exitPerimeter=0;entryX=1;entryY=1;entryDx=0;entryDy=0;fontSize=10;strokeColor=#FFFFFF;fillColor=#FFFFFF;" parent="1" source="emIFQkIN_60Ksdg_QMY8-83" target="emIFQkIN_60Ksdg_QMY8-112" edge="1">
          <mxGeometry relative="1" as="geometry" />
        </mxCell>
        <mxCell id="emIFQkIN_60Ksdg_QMY8-78" style="rounded=0;orthogonalLoop=1;jettySize=auto;html=1;exitX=0;exitY=0.3333333333333333;exitDx=0;exitDy=0;exitPerimeter=0;entryX=1;entryY=0.5;entryDx=0;entryDy=0;fontSize=10;strokeColor=#FFFFFF;fillColor=#FFFFFF;" parent="1" source="emIFQkIN_60Ksdg_QMY8-83" target="emIFQkIN_60Ksdg_QMY8-130" edge="1">
          <mxGeometry relative="1" as="geometry">
            <mxPoint x="2138.2842712474617" y="3321.2132034355964" as="targetPoint" />
          </mxGeometry>
        </mxCell>
        <mxCell id="emIFQkIN_60Ksdg_QMY8-79" style="rounded=0;orthogonalLoop=1;jettySize=auto;html=1;exitX=1;exitY=1;exitDx=0;exitDy=0;exitPerimeter=0;entryX=0.5;entryY=0;entryDx=0;entryDy=0;fontSize=10;strokeColor=#FFFFFF;fillColor=#FFFFFF;" parent="1" source="emIFQkIN_60Ksdg_QMY8-83" target="emIFQkIN_60Ksdg_QMY8-115" edge="1">
          <mxGeometry relative="1" as="geometry" />
        </mxCell>
        <mxCell id="emIFQkIN_60Ksdg_QMY8-80" style="rounded=0;orthogonalLoop=1;jettySize=auto;html=1;exitX=0;exitY=1;exitDx=0;exitDy=0;exitPerimeter=0;entryX=1;entryY=0;entryDx=0;entryDy=0;fontSize=10;strokeColor=#FFFFFF;fillColor=#FFFFFF;" parent="1" source="emIFQkIN_60Ksdg_QMY8-83" target="emIFQkIN_60Ksdg_QMY8-117" edge="1">
          <mxGeometry relative="1" as="geometry" />
        </mxCell>
        <mxCell id="emIFQkIN_60Ksdg_QMY8-81" style="rounded=0;orthogonalLoop=1;jettySize=auto;html=1;exitX=0.5;exitY=0;exitDx=0;exitDy=0;exitPerimeter=0;entryX=0.5;entryY=1;entryDx=0;entryDy=0;strokeColor=#FFFFFF;fillColor=#FFFFFF;" parent="1" source="emIFQkIN_60Ksdg_QMY8-83" target="emIFQkIN_60Ksdg_QMY8-119" edge="1">
          <mxGeometry relative="1" as="geometry" />
        </mxCell>
        <mxCell id="emIFQkIN_60Ksdg_QMY8-82" style="rounded=0;orthogonalLoop=1;jettySize=auto;html=1;exitX=1;exitY=0.3333333333333333;exitDx=0;exitDy=0;exitPerimeter=0;entryX=0;entryY=1;entryDx=0;entryDy=0;strokeColor=#FFFFFF;fillColor=#FFFFFF;" parent="1" source="emIFQkIN_60Ksdg_QMY8-83" target="emIFQkIN_60Ksdg_QMY8-108" edge="1">
          <mxGeometry relative="1" as="geometry" />
        </mxCell>
        <mxCell id="emIFQkIN_60Ksdg_QMY8-83" value="&lt;font style=&quot;color: rgb(255, 255, 255);&quot;&gt;Bệnh nhân&lt;/font&gt;" style="shape=umlActor;verticalLabelPosition=bottom;verticalAlign=top;html=1;outlineConnect=0;fontSize=10;strokeColor=#FFFFFF;fillColor=#121212;" parent="1" vertex="1">
          <mxGeometry x="2190" y="3295" width="20" height="40" as="geometry" />
        </mxCell>
        <mxCell id="emIFQkIN_60Ksdg_QMY8-84" style="rounded=0;orthogonalLoop=1;jettySize=auto;html=1;exitX=0;exitY=1;exitDx=0;exitDy=0;exitPerimeter=0;entryX=1;entryY=0.5;entryDx=0;entryDy=0;fontSize=10;strokeColor=#FFFFFF;fillColor=#FFFFFF;" parent="1" source="emIFQkIN_60Ksdg_QMY8-90" target="emIFQkIN_60Ksdg_QMY8-104" edge="1">
          <mxGeometry relative="1" as="geometry" />
        </mxCell>
        <mxCell id="emIFQkIN_60Ksdg_QMY8-85" style="rounded=0;orthogonalLoop=1;jettySize=auto;html=1;exitX=0;exitY=0.3333333333333333;exitDx=0;exitDy=0;exitPerimeter=0;entryX=1;entryY=0.5;entryDx=0;entryDy=0;strokeColor=#FFFFFF;fillColor=#FFFFFF;" parent="1" source="emIFQkIN_60Ksdg_QMY8-90" target="emIFQkIN_60Ksdg_QMY8-111" edge="1">
          <mxGeometry relative="1" as="geometry" />
        </mxCell>
        <mxCell id="emIFQkIN_60Ksdg_QMY8-86" style="rounded=0;orthogonalLoop=1;jettySize=auto;html=1;exitX=0.5;exitY=0.5;exitDx=0;exitDy=0;exitPerimeter=0;entryX=1;entryY=0.5;entryDx=0;entryDy=0;strokeColor=#FFFFFF;fillColor=#FFFFFF;" parent="1" source="emIFQkIN_60Ksdg_QMY8-90" target="emIFQkIN_60Ksdg_QMY8-110" edge="1">
          <mxGeometry relative="1" as="geometry" />
        </mxCell>
        <mxCell id="emIFQkIN_60Ksdg_QMY8-87" style="rounded=0;orthogonalLoop=1;jettySize=auto;html=1;exitX=0.5;exitY=0.5;exitDx=0;exitDy=0;exitPerimeter=0;entryX=1;entryY=0.5;entryDx=0;entryDy=0;strokeColor=#FFFFFF;fillColor=#FFFFFF;" parent="1" source="emIFQkIN_60Ksdg_QMY8-90" target="emIFQkIN_60Ksdg_QMY8-136" edge="1">
          <mxGeometry relative="1" as="geometry" />
        </mxCell>
        <mxCell id="emIFQkIN_60Ksdg_QMY8-88" style="rounded=0;orthogonalLoop=1;jettySize=auto;html=1;exitX=0;exitY=1;exitDx=0;exitDy=0;exitPerimeter=0;entryX=1;entryY=0.5;entryDx=0;entryDy=0;strokeColor=#FFFFFF;fillColor=#FFFFFF;" parent="1" source="emIFQkIN_60Ksdg_QMY8-90" target="emIFQkIN_60Ksdg_QMY8-114" edge="1">
          <mxGeometry relative="1" as="geometry" />
        </mxCell>
        <mxCell id="emIFQkIN_60Ksdg_QMY8-89" style="rounded=0;orthogonalLoop=1;jettySize=auto;html=1;exitX=1;exitY=1;exitDx=0;exitDy=0;exitPerimeter=0;entryX=0.5;entryY=0;entryDx=0;entryDy=0;strokeColor=#FFFFFF;fillColor=#FFFFFF;" parent="1" source="emIFQkIN_60Ksdg_QMY8-90" target="emIFQkIN_60Ksdg_QMY8-126" edge="1">
          <mxGeometry relative="1" as="geometry" />
        </mxCell>
        <mxCell id="emIFQkIN_60Ksdg_QMY8-90" value="&lt;font style=&quot;color: rgb(255, 255, 255);&quot;&gt;Bác sĩ&lt;/font&gt;" style="shape=umlActor;verticalLabelPosition=bottom;verticalAlign=top;html=1;outlineConnect=0;fontSize=10;strokeColor=#FFFFFF;fillColor=#121212;" parent="1" vertex="1">
          <mxGeometry x="2780" y="3047.5" width="20" height="40" as="geometry" />
        </mxCell>
        <mxCell id="emIFQkIN_60Ksdg_QMY8-91" style="rounded=0;orthogonalLoop=1;jettySize=auto;html=1;exitX=0.5;exitY=0.5;exitDx=0;exitDy=0;exitPerimeter=0;fontSize=10;strokeColor=#FFFFFF;fillColor=#FFFFFF;" parent="1" source="emIFQkIN_60Ksdg_QMY8-98" target="emIFQkIN_60Ksdg_QMY8-104" edge="1">
          <mxGeometry relative="1" as="geometry" />
        </mxCell>
        <mxCell id="emIFQkIN_60Ksdg_QMY8-92" style="rounded=0;orthogonalLoop=1;jettySize=auto;html=1;exitX=0;exitY=1;exitDx=0;exitDy=0;exitPerimeter=0;entryX=1;entryY=0.5;entryDx=0;entryDy=0;fontSize=10;strokeColor=#FFFFFF;fillColor=#FFFFFF;" parent="1" source="emIFQkIN_60Ksdg_QMY8-98" target="emIFQkIN_60Ksdg_QMY8-125" edge="1">
          <mxGeometry relative="1" as="geometry" />
        </mxCell>
        <mxCell id="emIFQkIN_60Ksdg_QMY8-93" style="rounded=0;orthogonalLoop=1;jettySize=auto;html=1;exitX=0;exitY=1;exitDx=0;exitDy=0;exitPerimeter=0;entryX=1;entryY=0.5;entryDx=0;entryDy=0;fontSize=10;strokeColor=#FFFFFF;fillColor=#FFFFFF;" parent="1" source="emIFQkIN_60Ksdg_QMY8-98" target="emIFQkIN_60Ksdg_QMY8-121" edge="1">
          <mxGeometry relative="1" as="geometry" />
        </mxCell>
        <mxCell id="emIFQkIN_60Ksdg_QMY8-94" style="rounded=0;orthogonalLoop=1;jettySize=auto;html=1;exitX=1;exitY=1;exitDx=0;exitDy=0;exitPerimeter=0;entryX=1;entryY=0;entryDx=0;entryDy=0;fontSize=10;strokeColor=#FFFFFF;fillColor=#FFFFFF;" parent="1" source="emIFQkIN_60Ksdg_QMY8-98" target="emIFQkIN_60Ksdg_QMY8-120" edge="1">
          <mxGeometry relative="1" as="geometry" />
        </mxCell>
        <mxCell id="emIFQkIN_60Ksdg_QMY8-95" style="rounded=0;orthogonalLoop=1;jettySize=auto;html=1;exitX=0.5;exitY=0.5;exitDx=0;exitDy=0;exitPerimeter=0;entryX=1;entryY=1;entryDx=0;entryDy=0;fontSize=10;strokeColor=#FFFFFF;fillColor=#FFFFFF;" parent="1" source="emIFQkIN_60Ksdg_QMY8-98" target="emIFQkIN_60Ksdg_QMY8-123" edge="1">
          <mxGeometry relative="1" as="geometry" />
        </mxCell>
        <mxCell id="emIFQkIN_60Ksdg_QMY8-96" style="rounded=0;orthogonalLoop=1;jettySize=auto;html=1;exitX=0;exitY=1;exitDx=0;exitDy=0;exitPerimeter=0;entryX=1;entryY=0.5;entryDx=0;entryDy=0;fontSize=10;strokeColor=#FFFFFF;fillColor=#FFFFFF;" parent="1" source="emIFQkIN_60Ksdg_QMY8-98" target="emIFQkIN_60Ksdg_QMY8-124" edge="1">
          <mxGeometry relative="1" as="geometry" />
        </mxCell>
        <mxCell id="emIFQkIN_60Ksdg_QMY8-97" style="rounded=0;orthogonalLoop=1;jettySize=auto;html=1;exitX=0.5;exitY=0;exitDx=0;exitDy=0;exitPerimeter=0;entryX=1;entryY=0;entryDx=0;entryDy=0;fontSize=10;strokeColor=#FFFFFF;fillColor=#FFFFFF;" parent="1" source="emIFQkIN_60Ksdg_QMY8-98" target="emIFQkIN_60Ksdg_QMY8-126" edge="1">
          <mxGeometry relative="1" as="geometry" />
        </mxCell>
        <mxCell id="emIFQkIN_60Ksdg_QMY8-98" value="&lt;font style=&quot;color: rgb(255, 255, 255);&quot;&gt;Quản trị viên&lt;/font&gt;" style="shape=umlActor;verticalLabelPosition=bottom;verticalAlign=top;html=1;outlineConnect=0;fontSize=10;strokeColor=#FFFFFF;fillColor=#121212;" parent="1" vertex="1">
          <mxGeometry x="3010" y="3285" width="20" height="40" as="geometry" />
        </mxCell>
        <mxCell id="emIFQkIN_60Ksdg_QMY8-99" style="rounded=0;orthogonalLoop=1;jettySize=auto;html=1;exitX=1;exitY=1;exitDx=0;exitDy=0;exitPerimeter=0;entryX=0;entryY=0;entryDx=0;entryDy=0;fontSize=10;strokeColor=#FFFFFF;fillColor=#FFFFFF;" parent="1" source="emIFQkIN_60Ksdg_QMY8-102" target="emIFQkIN_60Ksdg_QMY8-103" edge="1">
          <mxGeometry relative="1" as="geometry" />
        </mxCell>
        <mxCell id="emIFQkIN_60Ksdg_QMY8-100" style="rounded=0;orthogonalLoop=1;jettySize=auto;html=1;exitX=1;exitY=0.3333333333333333;exitDx=0;exitDy=0;exitPerimeter=0;entryX=0;entryY=0.5;entryDx=0;entryDy=0;fontSize=10;strokeColor=#FFFFFF;fillColor=#FFFFFF;" parent="1" source="emIFQkIN_60Ksdg_QMY8-102" target="emIFQkIN_60Ksdg_QMY8-119" edge="1">
          <mxGeometry relative="1" as="geometry" />
        </mxCell>
        <mxCell id="emIFQkIN_60Ksdg_QMY8-101" style="rounded=0;orthogonalLoop=1;jettySize=auto;html=1;exitX=0;exitY=1;exitDx=0;exitDy=0;exitPerimeter=0;entryX=1;entryY=0;entryDx=0;entryDy=0;fontSize=10;strokeColor=#FFFFFF;fillColor=#FFFFFF;" parent="1" source="emIFQkIN_60Ksdg_QMY8-102" target="emIFQkIN_60Ksdg_QMY8-112" edge="1">
          <mxGeometry relative="1" as="geometry" />
        </mxCell>
        <mxCell id="emIFQkIN_60Ksdg_QMY8-102" value="&lt;blockquote&gt;&lt;font style=&quot;color: rgb(255, 255, 255);&quot;&gt;Khách&lt;/font&gt;&lt;/blockquote&gt;" style="shape=umlActor;verticalLabelPosition=bottom;verticalAlign=top;html=1;outlineConnect=0;fontSize=10;strokeColor=#FFFFFF;fillColor=#121212;" parent="1" vertex="1">
          <mxGeometry x="2150" y="2970" width="20" height="40" as="geometry" />
        </mxCell>
        <mxCell id="emIFQkIN_60Ksdg_QMY8-103" value="&lt;span&gt;&lt;font style=&quot;color: rgb(255, 255, 255);&quot;&gt;Đăng ký&lt;/font&gt;&lt;/span&gt;" style="ellipse;whiteSpace=wrap;html=1;fontSize=10;strokeColor=#FFFFFF;fillColor=#121212;" parent="1" vertex="1">
          <mxGeometry x="2390" y="3107.5" width="70" height="40" as="geometry" />
        </mxCell>
        <mxCell id="emIFQkIN_60Ksdg_QMY8-104" value="&lt;span&gt;&lt;font style=&quot;color: rgb(255, 255, 255);&quot;&gt;Đăng nhập/ Đăng xuất&amp;nbsp;&lt;/font&gt;&lt;/span&gt;" style="ellipse;whiteSpace=wrap;html=1;fontSize=10;strokeColor=#FFFFFF;fillColor=#121212;" parent="1" vertex="1">
          <mxGeometry x="2640" y="3165" width="70" height="40" as="geometry" />
        </mxCell>
        <mxCell id="emIFQkIN_60Ksdg_QMY8-105" value="&lt;span&gt;&lt;font style=&quot;color: rgb(255, 255, 255);&quot;&gt;Quản lý hồ sơ cá nhân&lt;/font&gt;&lt;/span&gt;" style="ellipse;whiteSpace=wrap;html=1;fontSize=10;strokeColor=#FFFFFF;fillColor=#121212;" parent="1" vertex="1">
          <mxGeometry x="2290" y="3147.5" width="70" height="40" as="geometry" />
        </mxCell>
        <mxCell id="emIFQkIN_60Ksdg_QMY8-106" value="&lt;span&gt;&lt;font style=&quot;color: rgb(255, 255, 255);&quot;&gt;Đặt lịch khám&amp;nbsp;&lt;/font&gt;&lt;/span&gt;" style="ellipse;whiteSpace=wrap;html=1;fontSize=10;strokeColor=#FFFFFF;fillColor=#121212;" parent="1" vertex="1">
          <mxGeometry x="2420" y="3205" width="90" height="30" as="geometry" />
        </mxCell>
        <mxCell id="emIFQkIN_60Ksdg_QMY8-107" value="&amp;lt;&amp;lt;include&amp;gt;&amp;gt;" style="html=1;verticalAlign=bottom;labelBackgroundColor=none;endArrow=open;endFill=0;dashed=1;rounded=0;exitX=0.5;exitY=1;exitDx=0;exitDy=0;entryX=0.5;entryY=0;entryDx=0;entryDy=0;fontSize=10;strokeColor=#FFFFFF;fillColor=#FFFFFF;" parent="1" source="emIFQkIN_60Ksdg_QMY8-106" target="emIFQkIN_60Ksdg_QMY8-104" edge="1">
          <mxGeometry width="160" relative="1" as="geometry">
            <mxPoint x="2470" y="3185" as="sourcePoint" />
            <mxPoint x="2630" y="3185" as="targetPoint" />
          </mxGeometry>
        </mxCell>
        <mxCell id="emIFQkIN_60Ksdg_QMY8-108" value="&lt;font style=&quot;color: rgb(255, 255, 255);&quot;&gt;Hủy / Đổi lịch khám&lt;/font&gt;" style="ellipse;whiteSpace=wrap;html=1;fontSize=10;strokeColor=#FFFFFF;fillColor=#121212;" parent="1" vertex="1">
          <mxGeometry x="2500" y="3085" width="70" height="40" as="geometry" />
        </mxCell>
        <mxCell id="emIFQkIN_60Ksdg_QMY8-109" value="&amp;lt;&amp;lt;extend&amp;gt;&amp;gt;" style="html=1;verticalAlign=bottom;labelBackgroundColor=none;endArrow=open;endFill=0;dashed=1;rounded=0;exitX=0.5;exitY=0;exitDx=0;exitDy=0;entryX=0.5;entryY=1;entryDx=0;entryDy=0;fontSize=10;strokeColor=#FFFFFF;fillColor=#FFFFFF;" parent="1" source="emIFQkIN_60Ksdg_QMY8-106" target="emIFQkIN_60Ksdg_QMY8-108" edge="1">
          <mxGeometry width="160" relative="1" as="geometry">
            <mxPoint x="2470" y="3185" as="sourcePoint" />
            <mxPoint x="2630" y="3185" as="targetPoint" />
          </mxGeometry>
        </mxCell>
        <mxCell id="emIFQkIN_60Ksdg_QMY8-110" value="&lt;font style=&quot;color: rgb(255, 255, 255);&quot;&gt;Xem lịch hẹn&lt;/font&gt;" style="ellipse;whiteSpace=wrap;html=1;fontSize=10;strokeColor=#FFFFFF;fillColor=#121212;" parent="1" vertex="1">
          <mxGeometry x="2650" y="3082.5" width="70" height="45" as="geometry" />
        </mxCell>
        <mxCell id="emIFQkIN_60Ksdg_QMY8-111" value="&lt;font style=&quot;color: rgb(255, 255, 255);&quot;&gt;Xác nhận / Từ chối lịch khám&lt;/font&gt;" style="ellipse;whiteSpace=wrap;html=1;fontSize=10;strokeColor=#FFFFFF;fillColor=#121212;" parent="1" vertex="1">
          <mxGeometry x="2885" y="3010" width="90" height="55" as="geometry" />
        </mxCell>
        <mxCell id="emIFQkIN_60Ksdg_QMY8-112" value="&lt;font style=&quot;color: rgb(255, 255, 255);&quot;&gt;Trò chuyện với Chatbot&lt;/font&gt;" style="ellipse;whiteSpace=wrap;html=1;fontSize=10;strokeColor=#FFFFFF;fillColor=#121212;" parent="1" vertex="1">
          <mxGeometry x="2050" y="3210" width="80" height="50" as="geometry" />
        </mxCell>
        <mxCell id="emIFQkIN_60Ksdg_QMY8-113" value="&lt;font style=&quot;color: rgb(255, 255, 255);&quot;&gt;Cập nhật triệu chứng&lt;/font&gt;" style="ellipse;whiteSpace=wrap;html=1;fontSize=10;strokeColor=#FFFFFF;fillColor=#121212;" parent="1" vertex="1">
          <mxGeometry x="2150" y="3115" width="80" height="40" as="geometry" />
        </mxCell>
        <mxCell id="emIFQkIN_60Ksdg_QMY8-114" value="&lt;font style=&quot;color: rgb(255, 255, 255);&quot;&gt;Nhận thông báo&lt;/font&gt;" style="ellipse;whiteSpace=wrap;html=1;fontSize=10;strokeColor=#FFFFFF;fillColor=#121212;" parent="1" vertex="1">
          <mxGeometry x="2610" y="3225" width="80" height="50" as="geometry" />
        </mxCell>
        <mxCell id="emIFQkIN_60Ksdg_QMY8-115" value="&lt;font style=&quot;color: rgb(255, 255, 255);&quot;&gt;&amp;nbsp;Xem / Tìm kiếm sản phẩm&lt;/font&gt;" style="ellipse;whiteSpace=wrap;html=1;fontSize=10;strokeColor=#FFFFFF;fillColor=#121212;" parent="1" vertex="1">
          <mxGeometry x="2190" y="3405" width="80" height="50" as="geometry" />
        </mxCell>
        <mxCell id="emIFQkIN_60Ksdg_QMY8-116" value="&lt;font style=&quot;color: rgb(255, 255, 255);&quot;&gt;Tạo đơn hàng&lt;/font&gt;" style="ellipse;whiteSpace=wrap;html=1;fontSize=10;strokeColor=#FFFFFF;fillColor=#121212;" parent="1" vertex="1">
          <mxGeometry x="2220" y="3455" width="80" height="40" as="geometry" />
        </mxCell>
        <mxCell id="emIFQkIN_60Ksdg_QMY8-117" value="&lt;font style=&quot;color: rgb(255, 255, 255);&quot;&gt;Thanh toán đơn hàng&lt;/font&gt;" style="ellipse;whiteSpace=wrap;html=1;fontSize=10;strokeColor=#FFFFFF;fillColor=#121212;" parent="1" vertex="1">
          <mxGeometry x="2010" y="3425" width="80" height="40" as="geometry" />
        </mxCell>
        <mxCell id="emIFQkIN_60Ksdg_QMY8-118" value="&lt;font style=&quot;color: rgb(255, 255, 255);&quot;&gt;Theo dõi đơn hàng&lt;/font&gt;" style="ellipse;whiteSpace=wrap;html=1;fontSize=10;strokeColor=#FFFFFF;fillColor=#121212;" parent="1" vertex="1">
          <mxGeometry x="2280" y="3345" width="80" height="50" as="geometry" />
        </mxCell>
        <mxCell id="emIFQkIN_60Ksdg_QMY8-119" value="&lt;font&gt;&lt;font style=&quot;color: rgb(255, 255, 255);&quot;&gt;Xem bài viết / Blog&lt;/font&gt;&lt;br&gt;&lt;/font&gt;" style="ellipse;whiteSpace=wrap;html=1;fontSize=10;strokeColor=#FFFFFF;fillColor=#121212;" parent="1" vertex="1">
          <mxGeometry x="2360" y="3045" width="80" height="40" as="geometry" />
        </mxCell>
        <mxCell id="emIFQkIN_60Ksdg_QMY8-120" value="&lt;font style=&quot;color: rgb(255, 255, 255);&quot;&gt;Quản lý bài viết / blog&lt;/font&gt;" style="ellipse;whiteSpace=wrap;html=1;fontSize=10;strokeColor=#FFFFFF;fillColor=#121212;" parent="1" vertex="1">
          <mxGeometry x="2890" y="3520" width="80" height="50" as="geometry" />
        </mxCell>
        <mxCell id="emIFQkIN_60Ksdg_QMY8-121" value="&lt;font style=&quot;color: rgb(255, 255, 255);&quot;&gt;Quản lý người dùng &amp;amp; phân quyền&lt;/font&gt;" style="ellipse;whiteSpace=wrap;html=1;fontSize=10;strokeColor=#FFFFFF;fillColor=#121212;" parent="1" vertex="1">
          <mxGeometry x="2735" y="3425" width="100" height="50" as="geometry" />
        </mxCell>
        <mxCell id="emIFQkIN_60Ksdg_QMY8-122" style="edgeStyle=orthogonalEdgeStyle;rounded=0;orthogonalLoop=1;jettySize=auto;html=1;exitX=0.5;exitY=1;exitDx=0;exitDy=0;strokeColor=#FFFFFF;fillColor=#FFFFFF;" parent="1" source="emIFQkIN_60Ksdg_QMY8-123" edge="1">
          <mxGeometry relative="1" as="geometry">
            <mxPoint x="2780" y="3335" as="targetPoint" />
          </mxGeometry>
        </mxCell>
        <mxCell id="emIFQkIN_60Ksdg_QMY8-123" value="&lt;font style=&quot;color: rgb(255, 255, 255);&quot;&gt;Quản lý bác sĩ &amp;amp; lịch khám&lt;/font&gt;" style="ellipse;whiteSpace=wrap;html=1;fontSize=10;strokeColor=#FFFFFF;fillColor=#121212;" parent="1" vertex="1">
          <mxGeometry x="2740" y="3305" width="90" height="40" as="geometry" />
        </mxCell>
        <mxCell id="emIFQkIN_60Ksdg_QMY8-124" value="&lt;font style=&quot;color: rgb(255, 255, 255);&quot;&gt;Quản lý sản phẩm / dịch vụ&lt;/font&gt;" style="ellipse;whiteSpace=wrap;html=1;fontSize=10;strokeColor=#FFFFFF;fillColor=#121212;" parent="1" vertex="1">
          <mxGeometry x="2770" y="3500" width="80" height="40" as="geometry" />
        </mxCell>
        <mxCell id="emIFQkIN_60Ksdg_QMY8-125" value="&lt;font style=&quot;color: rgb(255, 255, 255);&quot;&gt;Quản lý đơn hàng &amp;amp; thanh toán&lt;/font&gt;" style="ellipse;whiteSpace=wrap;html=1;fontSize=10;strokeColor=#FFFFFF;fillColor=#121212;" parent="1" vertex="1">
          <mxGeometry x="2710" y="3365" width="80" height="50" as="geometry" />
        </mxCell>
        <mxCell id="emIFQkIN_60Ksdg_QMY8-126" value="&lt;font style=&quot;color: rgb(255, 255, 255);&quot;&gt;Truy vấn dữ liệu tự nhiên (NLQ)&lt;/font&gt;" style="ellipse;whiteSpace=wrap;html=1;fontSize=10;strokeColor=#FFFFFF;fillColor=#121212;" parent="1" vertex="1">
          <mxGeometry x="2820" y="3187.5" width="90" height="40" as="geometry" />
        </mxCell>
        <mxCell id="emIFQkIN_60Ksdg_QMY8-127" value="&lt;font style=&quot;color: rgb(255, 255, 255);&quot;&gt;Xem logs / Audit&lt;/font&gt;" style="ellipse;whiteSpace=wrap;html=1;fontSize=10;strokeColor=#FFFFFF;fillColor=#121212;" parent="1" vertex="1">
          <mxGeometry x="2992" y="3485" width="85" height="50" as="geometry" />
        </mxCell>
        <mxCell id="emIFQkIN_60Ksdg_QMY8-128" value="&lt;font style=&quot;color: rgb(255, 255, 255);&quot;&gt;Gợi ý sản phẩm / dịch vụ&lt;/font&gt;" style="ellipse;whiteSpace=wrap;html=1;fontSize=10;strokeColor=#FFFFFF;fillColor=#121212;" parent="1" vertex="1">
          <mxGeometry x="1890" y="3155" width="80" height="50" as="geometry" />
        </mxCell>
        <mxCell id="emIFQkIN_60Ksdg_QMY8-129" value="&amp;lt;&amp;lt;include&amp;gt;&amp;gt;" style="html=1;verticalAlign=bottom;labelBackgroundColor=none;endArrow=open;endFill=0;dashed=1;rounded=0;exitX=0.5;exitY=1;exitDx=0;exitDy=0;entryX=0;entryY=0;entryDx=0;entryDy=0;fontSize=10;strokeColor=#FFFFFF;fillColor=#FFFFFF;" parent="1" source="emIFQkIN_60Ksdg_QMY8-128" target="emIFQkIN_60Ksdg_QMY8-112" edge="1">
          <mxGeometry width="160" relative="1" as="geometry">
            <mxPoint x="1980" y="3155" as="sourcePoint" />
            <mxPoint x="2140" y="3155" as="targetPoint" />
          </mxGeometry>
        </mxCell>
        <mxCell id="emIFQkIN_60Ksdg_QMY8-130" value="&lt;font style=&quot;color: rgb(255, 255, 255);&quot;&gt;Đặt lịch khám qua Chatbot&lt;/font&gt;" style="ellipse;whiteSpace=wrap;html=1;fontSize=10;strokeColor=#FFFFFF;fillColor=#121212;" parent="1" vertex="1">
          <mxGeometry x="1960" y="3305" width="80" height="50" as="geometry" />
        </mxCell>
        <mxCell id="emIFQkIN_60Ksdg_QMY8-131" value="&amp;lt;&amp;lt;extend&amp;gt;&amp;gt;" style="html=1;verticalAlign=bottom;labelBackgroundColor=none;endArrow=open;endFill=0;dashed=1;rounded=0;exitX=0.5;exitY=1;exitDx=0;exitDy=0;entryX=0.5;entryY=0;entryDx=0;entryDy=0;fontSize=10;strokeColor=#FFFFFF;fillColor=#FFFFFF;" parent="1" source="emIFQkIN_60Ksdg_QMY8-112" target="emIFQkIN_60Ksdg_QMY8-130" edge="1">
          <mxGeometry width="160" relative="1" as="geometry">
            <mxPoint x="2350" y="3225" as="sourcePoint" />
            <mxPoint x="2510" y="3225" as="targetPoint" />
          </mxGeometry>
        </mxCell>
        <mxCell id="emIFQkIN_60Ksdg_QMY8-132" value="&amp;lt;&amp;lt;include&amp;gt;&amp;gt;" style="html=1;verticalAlign=bottom;labelBackgroundColor=none;endArrow=open;endFill=0;dashed=1;rounded=0;exitX=1;exitY=0.5;exitDx=0;exitDy=0;entryX=0;entryY=0.5;entryDx=0;entryDy=0;fontSize=10;strokeColor=#FFFFFF;fillColor=#FFFFFF;" parent="1" source="emIFQkIN_60Ksdg_QMY8-117" target="emIFQkIN_60Ksdg_QMY8-116" edge="1">
          <mxGeometry width="160" relative="1" as="geometry">
            <mxPoint x="2350" y="3475" as="sourcePoint" />
            <mxPoint x="2510" y="3475" as="targetPoint" />
          </mxGeometry>
        </mxCell>
        <mxCell id="emIFQkIN_60Ksdg_QMY8-133" style="rounded=0;orthogonalLoop=1;jettySize=auto;html=1;exitX=1;exitY=1;exitDx=0;exitDy=0;exitPerimeter=0;entryX=0.5;entryY=0;entryDx=0;entryDy=0;fontSize=10;strokeColor=#FFFFFF;fillColor=#FFFFFF;" parent="1" source="emIFQkIN_60Ksdg_QMY8-98" target="emIFQkIN_60Ksdg_QMY8-127" edge="1">
          <mxGeometry relative="1" as="geometry" />
        </mxCell>
        <mxCell id="emIFQkIN_60Ksdg_QMY8-134" value="&amp;lt;&amp;lt;extend&amp;gt;&amp;gt;" style="html=1;verticalAlign=bottom;labelBackgroundColor=none;endArrow=open;endFill=0;dashed=1;rounded=0;exitX=0.5;exitY=0.9;exitDx=0;exitDy=0;entryX=0.5;entryY=0;entryDx=0;entryDy=0;exitPerimeter=0;strokeColor=#FFFFFF;fillColor=#FFFFFF;" parent="1" source="emIFQkIN_60Ksdg_QMY8-118" target="emIFQkIN_60Ksdg_QMY8-116" edge="1">
          <mxGeometry width="160" relative="1" as="geometry">
            <mxPoint x="2360" y="3295" as="sourcePoint" />
            <mxPoint x="2520" y="3295" as="targetPoint" />
          </mxGeometry>
        </mxCell>
        <mxCell id="emIFQkIN_60Ksdg_QMY8-135" value="&amp;lt;&amp;lt;extend&amp;gt;&amp;gt;" style="html=1;verticalAlign=bottom;labelBackgroundColor=none;endArrow=open;endFill=0;dashed=1;rounded=0;exitX=0.978;exitY=0.305;exitDx=0;exitDy=0;exitPerimeter=0;entryX=0;entryY=1;entryDx=0;entryDy=0;strokeColor=#FFFFFF;fillColor=#FFFFFF;" parent="1" source="emIFQkIN_60Ksdg_QMY8-112" target="emIFQkIN_60Ksdg_QMY8-113" edge="1">
          <mxGeometry width="160" relative="1" as="geometry">
            <mxPoint x="2360" y="3295" as="sourcePoint" />
            <mxPoint x="2520" y="3295" as="targetPoint" />
          </mxGeometry>
        </mxCell>
        <mxCell id="emIFQkIN_60Ksdg_QMY8-136" value="&lt;font style=&quot;color: rgb(255, 255, 255);&quot;&gt;Cập nhật lịch làm việc&lt;/font&gt;" style="ellipse;whiteSpace=wrap;html=1;strokeColor=#FFFFFF;fillColor=#121212;" parent="1" vertex="1">
          <mxGeometry x="2660" y="2995" width="80" height="50" as="geometry" />
        </mxCell>
        <mxCell id="emIFQkIN_60Ksdg_QMY8-147" style="rounded=0;orthogonalLoop=1;jettySize=auto;html=1;exitX=1;exitY=0.3333333333333333;exitDx=0;exitDy=0;exitPerimeter=0;entryX=0;entryY=0.5;entryDx=0;entryDy=0;fontSize=10;strokeColor=#FFFFFF;fillColor=#FFFFFF;" parent="1" source="emIFQkIN_60Ksdg_QMY8-150" target="emIFQkIN_60Ksdg_QMY8-151" edge="1">
          <mxGeometry relative="1" as="geometry" />
        </mxCell>
        <mxCell id="emIFQkIN_60Ksdg_QMY8-148" style="rounded=0;orthogonalLoop=1;jettySize=auto;html=1;exitX=1;exitY=0.3333333333333333;exitDx=0;exitDy=0;exitPerimeter=0;entryX=0;entryY=0.5;entryDx=0;entryDy=0;fontSize=10;strokeColor=#FFFFFF;fillColor=#FFFFFF;" parent="1" source="emIFQkIN_60Ksdg_QMY8-150" target="emIFQkIN_60Ksdg_QMY8-153" edge="1">
          <mxGeometry relative="1" as="geometry" />
        </mxCell>
        <mxCell id="emIFQkIN_60Ksdg_QMY8-149" style="rounded=0;orthogonalLoop=1;jettySize=auto;html=1;exitX=1;exitY=0.3333333333333333;exitDx=0;exitDy=0;exitPerimeter=0;entryX=0;entryY=0.5;entryDx=0;entryDy=0;fontSize=10;strokeColor=#FFFFFF;fillColor=#FFFFFF;" parent="1" source="emIFQkIN_60Ksdg_QMY8-150" target="emIFQkIN_60Ksdg_QMY8-152" edge="1">
          <mxGeometry relative="1" as="geometry" />
        </mxCell>
        <mxCell id="emIFQkIN_60Ksdg_QMY8-155" style="rounded=0;orthogonalLoop=1;jettySize=auto;html=1;exitX=1;exitY=0.3333333333333333;exitDx=0;exitDy=0;exitPerimeter=0;entryX=0;entryY=0.5;entryDx=0;entryDy=0;strokeColor=#FFFFFF;" parent="1" source="emIFQkIN_60Ksdg_QMY8-150" target="emIFQkIN_60Ksdg_QMY8-154" edge="1">
          <mxGeometry relative="1" as="geometry" />
        </mxCell>
        <mxCell id="emIFQkIN_60Ksdg_QMY8-150" value="&lt;blockquote&gt;&lt;font style=&quot;color: rgb(255, 255, 255);&quot;&gt;Khách&lt;/font&gt;&lt;/blockquote&gt;" style="shape=umlActor;verticalLabelPosition=bottom;verticalAlign=top;html=1;outlineConnect=0;fontSize=10;strokeColor=#FFFFFF;fillColor=#121212;" parent="1" vertex="1">
          <mxGeometry x="-180" y="910" width="20" height="40" as="geometry" />
        </mxCell>
        <mxCell id="emIFQkIN_60Ksdg_QMY8-151" value="&lt;span&gt;&lt;font style=&quot;color: rgb(255, 255, 255);&quot;&gt;Đăng ký&lt;/font&gt;&lt;/span&gt;" style="ellipse;whiteSpace=wrap;html=1;fontSize=10;strokeColor=#FFFFFF;fillColor=#121212;" parent="1" vertex="1">
          <mxGeometry x="65" y="950" width="70" height="40" as="geometry" />
        </mxCell>
        <mxCell id="emIFQkIN_60Ksdg_QMY8-152" value="&lt;font style=&quot;color: rgb(255, 255, 255);&quot;&gt;Trò chuyện với Chatbot&lt;/font&gt;" style="ellipse;whiteSpace=wrap;html=1;fontSize=10;strokeColor=#FFFFFF;fillColor=#121212;" parent="1" vertex="1">
          <mxGeometry x="65" y="1150" width="80" height="50" as="geometry" />
        </mxCell>
        <mxCell id="emIFQkIN_60Ksdg_QMY8-153" value="&lt;font&gt;&lt;font style=&quot;color: rgb(255, 255, 255);&quot;&gt;Xem bài viết / Blog&lt;/font&gt;&lt;br&gt;&lt;/font&gt;" style="ellipse;whiteSpace=wrap;html=1;fontSize=10;strokeColor=#FFFFFF;fillColor=#121212;" parent="1" vertex="1">
          <mxGeometry x="60" y="880" width="80" height="40" as="geometry" />
        </mxCell>
        <mxCell id="emIFQkIN_60Ksdg_QMY8-154" value="&lt;span&gt;&lt;font style=&quot;color: rgb(255, 255, 255);&quot;&gt;Đăng nhập&lt;/font&gt;&lt;/span&gt;" style="ellipse;whiteSpace=wrap;html=1;fontSize=10;strokeColor=#FFFFFF;fillColor=#121212;" parent="1" vertex="1">
          <mxGeometry x="65" y="1030" width="70" height="40" as="geometry" />
        </mxCell>
        <mxCell id="emIFQkIN_60Ksdg_QMY8-156" style="rounded=0;orthogonalLoop=1;jettySize=auto;html=1;exitX=1;exitY=0.3333333333333333;exitDx=0;exitDy=0;exitPerimeter=0;entryX=0;entryY=0.5;entryDx=0;entryDy=0;fontSize=10;strokeColor=#FFFFFF;fillColor=#FFFFFF;" parent="1" source="emIFQkIN_60Ksdg_QMY8-150" target="emIFQkIN_60Ksdg_QMY8-157" edge="1">
          <mxGeometry relative="1" as="geometry">
            <mxPoint x="-205" y="754" as="sourcePoint" />
          </mxGeometry>
        </mxCell>
        <mxCell id="emIFQkIN_60Ksdg_QMY8-157" value="&lt;font style=&quot;color: rgb(255, 255, 255);&quot;&gt;&amp;nbsp;Xem / Tìm kiếm sản phẩm&lt;/font&gt;" style="ellipse;whiteSpace=wrap;html=1;fontSize=10;strokeColor=#FFFFFF;fillColor=#121212;" parent="1" vertex="1">
          <mxGeometry x="65" y="1090" width="80" height="50" as="geometry" />
        </mxCell>
        <mxCell id="emIFQkIN_60Ksdg_QMY8-158" value="&lt;span&gt;&lt;font style=&quot;color: rgb(255, 255, 255);&quot;&gt;thêm sản phẩm vào giỏ hàng&lt;/font&gt;&lt;/span&gt;" style="ellipse;whiteSpace=wrap;html=1;fontSize=10;strokeColor=#FFFFFF;fillColor=#121212;" parent="1" vertex="1">
          <mxGeometry x="130" y="1444" width="100" height="55.5" as="geometry" />
        </mxCell>
        <mxCell id="emIFQkIN_60Ksdg_QMY8-159" value="&lt;span style=&quot;color: rgb(255, 255, 255);&quot;&gt;&amp;lt;&amp;lt;include&amp;gt;&amp;gt;&lt;/span&gt;" style="html=1;verticalAlign=bottom;labelBackgroundColor=none;endArrow=open;endFill=0;dashed=1;rounded=0;exitX=1;exitY=0.5;exitDx=0;exitDy=0;entryX=0;entryY=0.5;entryDx=0;entryDy=0;fontSize=10;strokeColor=#FFFFFF;fillColor=#FFFFFF;" parent="1" source="6rnab73OeRJo71UnPsnl-45" target="emIFQkIN_60Ksdg_QMY8-158" edge="1">
          <mxGeometry width="160" relative="1" as="geometry">
            <mxPoint x="550" y="1085.5" as="sourcePoint" />
            <mxPoint x="315" y="1345.5" as="targetPoint" />
          </mxGeometry>
        </mxCell>
        <mxCell id="emIFQkIN_60Ksdg_QMY8-160" value="&lt;span style=&quot;color: rgb(255, 255, 255);&quot;&gt;&amp;lt;&amp;lt;include&amp;gt;&amp;gt;&lt;/span&gt;" style="html=1;verticalAlign=bottom;labelBackgroundColor=none;endArrow=open;endFill=0;dashed=1;rounded=0;exitX=1;exitY=0.5;exitDx=0;exitDy=0;entryX=0;entryY=0.5;entryDx=0;entryDy=0;fontSize=10;strokeColor=#FFFFFF;fillColor=#FFFFFF;" parent="1" source="6rnab73OeRJo71UnPsnl-40" target="6rnab73OeRJo71UnPsnl-38" edge="1">
          <mxGeometry width="160" relative="1" as="geometry">
            <mxPoint x="70" y="1647" as="sourcePoint" />
            <mxPoint x="190" y="1620" as="targetPoint" />
          </mxGeometry>
        </mxCell>
        <mxCell id="emIFQkIN_60Ksdg_QMY8-161" value="&lt;font style=&quot;color: rgb(255, 255, 255);&quot;&gt;&amp;lt;&amp;lt;extend&amp;gt;&amp;gt;&lt;/font&gt;" style="html=1;verticalAlign=bottom;labelBackgroundColor=none;endArrow=open;endFill=0;dashed=1;rounded=0;exitX=0;exitY=0.5;exitDx=0;exitDy=0;entryX=0.963;entryY=0.366;entryDx=0;entryDy=0;strokeColor=#FFFFFF;fillColor=#FFFFFF;entryPerimeter=0;" parent="1" source="6rnab73OeRJo71UnPsnl-43" target="6rnab73OeRJo71UnPsnl-42" edge="1">
          <mxGeometry width="160" relative="1" as="geometry">
            <mxPoint x="50" y="1980" as="sourcePoint" />
            <mxPoint x="-15" y="2060" as="targetPoint" />
          </mxGeometry>
        </mxCell>
        <mxCell id="emIFQkIN_60Ksdg_QMY8-162" value="&lt;font style=&quot;color: rgb(255, 255, 255);&quot;&gt;&amp;lt;&amp;lt;extend&amp;gt;&amp;gt;&lt;/font&gt;" style="html=1;verticalAlign=bottom;labelBackgroundColor=none;endArrow=open;endFill=0;dashed=1;rounded=0;exitX=0;exitY=0.5;exitDx=0;exitDy=0;entryX=1;entryY=0.5;entryDx=0;entryDy=0;strokeColor=#FFFFFF;fillColor=#FFFFFF;" parent="1" source="6rnab73OeRJo71UnPsnl-60" target="6rnab73OeRJo71UnPsnl-42" edge="1">
          <mxGeometry width="160" relative="1" as="geometry">
            <mxPoint x="40" y="2090" as="sourcePoint" />
            <mxPoint x="-25" y="2170" as="targetPoint" />
          </mxGeometry>
        </mxCell>
        <mxCell id="emIFQkIN_60Ksdg_QMY8-163" value="&lt;font style=&quot;color: rgb(255, 255, 255);&quot;&gt;&amp;lt;&amp;lt;extend&amp;gt;&amp;gt;&lt;/font&gt;" style="html=1;verticalAlign=bottom;labelBackgroundColor=none;endArrow=open;endFill=0;dashed=1;rounded=0;exitX=0;exitY=0.5;exitDx=0;exitDy=0;entryX=0.928;entryY=0.693;entryDx=0;entryDy=0;strokeColor=#FFFFFF;fillColor=#FFFFFF;entryPerimeter=0;" parent="1" source="6rnab73OeRJo71UnPsnl-58" target="6rnab73OeRJo71UnPsnl-42" edge="1">
          <mxGeometry width="160" relative="1" as="geometry">
            <mxPoint x="20" y="2090" as="sourcePoint" />
            <mxPoint x="-45" y="2170" as="targetPoint" />
          </mxGeometry>
        </mxCell>
        <mxCell id="emIFQkIN_60Ksdg_QMY8-164" value="&lt;font color=&quot;#ffffff&quot;&gt;Xem giỏ hàng&lt;/font&gt;" style="ellipse;whiteSpace=wrap;html=1;fontSize=10;strokeColor=#FFFFFF;fillColor=#121212;" parent="1" vertex="1">
          <mxGeometry x="-40" y="1510" width="80" height="40" as="geometry" />
        </mxCell>
        <mxCell id="emIFQkIN_60Ksdg_QMY8-165" value="&lt;font style=&quot;color: rgb(255, 255, 255);&quot;&gt;&amp;lt;&amp;lt;include&amp;gt;&amp;gt;&lt;/font&gt;" style="html=1;verticalAlign=bottom;labelBackgroundColor=none;endArrow=open;endFill=0;dashed=1;rounded=0;exitX=1;exitY=0.5;exitDx=0;exitDy=0;entryX=0;entryY=0.5;entryDx=0;entryDy=0;fontSize=10;strokeColor=#FFFFFF;fillColor=#FFFFFF;" parent="1" source="emIFQkIN_60Ksdg_QMY8-164" target="6rnab73OeRJo71UnPsnl-47" edge="1">
          <mxGeometry width="160" relative="1" as="geometry">
            <mxPoint x="100" y="1810" as="sourcePoint" />
            <mxPoint x="180" y="1810" as="targetPoint" />
          </mxGeometry>
        </mxCell>
        <mxCell id="emIFQkIN_60Ksdg_QMY8-166" value="&lt;font style=&quot;color: rgb(255, 255, 255);&quot;&gt;&amp;lt;&amp;lt;extend&amp;gt;&amp;gt;&lt;/font&gt;" style="html=1;verticalAlign=bottom;labelBackgroundColor=none;endArrow=open;endFill=0;dashed=1;rounded=0;exitX=0.5;exitY=1;exitDx=0;exitDy=0;entryX=0.5;entryY=0;entryDx=0;entryDy=0;strokeColor=#FFFFFF;fillColor=#FFFFFF;" parent="1" source="emIFQkIN_60Ksdg_QMY8-151" target="emIFQkIN_60Ksdg_QMY8-154" edge="1">
          <mxGeometry width="160" relative="1" as="geometry">
            <mxPoint x="295" y="1060" as="sourcePoint" />
            <mxPoint x="230" y="1125" as="targetPoint" />
          </mxGeometry>
        </mxCell>
        <mxCell id="emIFQkIN_60Ksdg_QMY8-168" style="rounded=0;orthogonalLoop=1;jettySize=auto;html=1;exitX=0.5;exitY=0.5;exitDx=0;exitDy=0;exitPerimeter=0;entryX=1;entryY=0.5;entryDx=0;entryDy=0;strokeColor=#FFFFFF;fillColor=#FFFFFF;" parent="1" source="emIFQkIN_60Ksdg_QMY8-172" target="emIFQkIN_60Ksdg_QMY8-173" edge="1">
          <mxGeometry relative="1" as="geometry" />
        </mxCell>
        <mxCell id="emIFQkIN_60Ksdg_QMY8-169" style="rounded=0;orthogonalLoop=1;jettySize=auto;html=1;exitX=0.5;exitY=0.5;exitDx=0;exitDy=0;exitPerimeter=0;entryX=1;entryY=0.5;entryDx=0;entryDy=0;strokeColor=#FFFFFF;fillColor=#FFFFFF;" parent="1" source="emIFQkIN_60Ksdg_QMY8-172" target="emIFQkIN_60Ksdg_QMY8-177" edge="1">
          <mxGeometry relative="1" as="geometry" />
        </mxCell>
        <mxCell id="emIFQkIN_60Ksdg_QMY8-170" style="rounded=0;orthogonalLoop=1;jettySize=auto;html=1;exitX=0.5;exitY=0.5;exitDx=0;exitDy=0;exitPerimeter=0;entryX=1;entryY=0.5;entryDx=0;entryDy=0;strokeColor=#FFFFFF;fillColor=#FFFFFF;" parent="1" source="emIFQkIN_60Ksdg_QMY8-172" target="emIFQkIN_60Ksdg_QMY8-175" edge="1">
          <mxGeometry relative="1" as="geometry" />
        </mxCell>
        <mxCell id="emIFQkIN_60Ksdg_QMY8-171" style="rounded=0;orthogonalLoop=1;jettySize=auto;html=1;exitX=0.5;exitY=0.5;exitDx=0;exitDy=0;exitPerimeter=0;entryX=1;entryY=0.5;entryDx=0;entryDy=0;strokeColor=#FFFFFF;fillColor=#FFFFFF;" parent="1" source="emIFQkIN_60Ksdg_QMY8-172" target="emIFQkIN_60Ksdg_QMY8-178" edge="1">
          <mxGeometry relative="1" as="geometry" />
        </mxCell>
        <mxCell id="emIFQkIN_60Ksdg_QMY8-172" value="&lt;font style=&quot;color: rgb(255, 255, 255);&quot;&gt;Bác sĩ&lt;/font&gt;" style="shape=umlActor;verticalLabelPosition=bottom;verticalAlign=top;html=1;outlineConnect=0;fontSize=10;strokeColor=#FFFFFF;fillColor=#121212;" parent="1" vertex="1">
          <mxGeometry x="800" y="1342.5" width="20" height="40" as="geometry" />
        </mxCell>
        <mxCell id="emIFQkIN_60Ksdg_QMY8-173" value="&lt;font style=&quot;color: rgb(255, 255, 255);&quot;&gt;Xem lịch khám&lt;/font&gt;" style="ellipse;whiteSpace=wrap;html=1;fontSize=10;strokeColor=#FFFFFF;fillColor=#121212;" parent="1" vertex="1">
          <mxGeometry x="620" y="1337.5" width="70" height="45" as="geometry" />
        </mxCell>
        <mxCell id="emIFQkIN_60Ksdg_QMY8-174" value="&lt;font style=&quot;color: rgb(255, 255, 255);&quot;&gt;Xác nhận / Từ chối lịch khám&lt;/font&gt;" style="ellipse;whiteSpace=wrap;html=1;fontSize=10;strokeColor=#FFFFFF;fillColor=#121212;" parent="1" vertex="1">
          <mxGeometry x="465" y="1325" width="90" height="55" as="geometry" />
        </mxCell>
        <mxCell id="emIFQkIN_60Ksdg_QMY8-175" value="&lt;font style=&quot;color: rgb(255, 255, 255);&quot;&gt;Nhận thông báo&lt;/font&gt;" style="ellipse;whiteSpace=wrap;html=1;fontSize=10;strokeColor=#FFFFFF;fillColor=#121212;" parent="1" vertex="1">
          <mxGeometry x="620" y="1399.5" width="80" height="50" as="geometry" />
        </mxCell>
        <mxCell id="emIFQkIN_60Ksdg_QMY8-176" value="&lt;font style=&quot;color: rgb(255, 255, 255);&quot;&gt;Hỏi tổng quát phỏng đoán bệnh của bệnh nhân&lt;/font&gt;" style="ellipse;whiteSpace=wrap;html=1;fontSize=10;strokeColor=#FFFFFF;fillColor=#121212;" parent="1" vertex="1">
          <mxGeometry x="557.5" y="1570" width="115" height="60" as="geometry" />
        </mxCell>
        <mxCell id="emIFQkIN_60Ksdg_QMY8-177" value="&lt;font style=&quot;color: rgb(255, 255, 255);&quot;&gt;Cập nhật lịch làm việc&lt;/font&gt;" style="ellipse;whiteSpace=wrap;html=1;strokeColor=#FFFFFF;fillColor=#121212;" parent="1" vertex="1">
          <mxGeometry x="615" y="1270" width="80" height="50" as="geometry" />
        </mxCell>
        <mxCell id="emIFQkIN_60Ksdg_QMY8-178" value="&lt;font style=&quot;color: rgb(255, 255, 255);&quot;&gt;Trò chuyện với Chatbot&lt;/font&gt;" style="ellipse;whiteSpace=wrap;html=1;fontSize=10;strokeColor=#FFFFFF;fillColor=#121212;" parent="1" vertex="1">
          <mxGeometry x="620" y="1472.5" width="80" height="50" as="geometry" />
        </mxCell>
        <mxCell id="emIFQkIN_60Ksdg_QMY8-180" value="&lt;font style=&quot;color: rgb(255, 255, 255);&quot;&gt;&amp;lt;&amp;lt;include&amp;gt;&amp;gt;&lt;/font&gt;" style="html=1;verticalAlign=bottom;labelBackgroundColor=none;endArrow=open;endFill=0;dashed=1;rounded=0;exitX=0;exitY=0.5;exitDx=0;exitDy=0;entryX=1;entryY=0.5;entryDx=0;entryDy=0;fontSize=10;strokeColor=#FFFFFF;fillColor=#FFFFFF;" parent="1" source="emIFQkIN_60Ksdg_QMY8-173" target="emIFQkIN_60Ksdg_QMY8-174" edge="1">
          <mxGeometry width="160" relative="1" as="geometry">
            <mxPoint x="530" y="1500" as="sourcePoint" />
            <mxPoint x="575" y="1500" as="targetPoint" />
          </mxGeometry>
        </mxCell>
        <mxCell id="emIFQkIN_60Ksdg_QMY8-181" value="&lt;span style=&quot;color: rgb(255, 255, 255); font-size: 11px;&quot;&gt;&amp;lt;&amp;lt;extend&amp;gt;&amp;gt;&lt;/span&gt;" style="html=1;verticalAlign=bottom;labelBackgroundColor=none;endArrow=open;endFill=0;dashed=1;rounded=0;exitX=0.5;exitY=0;exitDx=0;exitDy=0;entryX=0.5;entryY=1;entryDx=0;entryDy=0;fontSize=10;strokeColor=#FFFFFF;fillColor=#FFFFFF;" parent="1" source="emIFQkIN_60Ksdg_QMY8-176" target="emIFQkIN_60Ksdg_QMY8-178" edge="1">
          <mxGeometry width="160" relative="1" as="geometry">
            <mxPoint x="595" y="1560" as="sourcePoint" />
            <mxPoint x="520" y="1563" as="targetPoint" />
          </mxGeometry>
        </mxCell>
        <mxCell id="emIFQkIN_60Ksdg_QMY8-182" value="&lt;font style=&quot;color: rgb(255, 255, 255);&quot;&gt;Trò chuyện với Chatbot&lt;/font&gt;" style="ellipse;whiteSpace=wrap;html=1;fontSize=10;strokeColor=#FFFFFF;fillColor=#121212;" parent="1" vertex="1">
          <mxGeometry x="445" y="1670" width="80" height="50" as="geometry" />
        </mxCell>
        <mxCell id="emIFQkIN_60Ksdg_QMY8-183" value="&lt;span style=&quot;color: rgb(255, 255, 255); font-size: 11px;&quot;&gt;&amp;lt;&amp;lt;extend&amp;gt;&amp;gt;&lt;/span&gt;" style="html=1;verticalAlign=bottom;labelBackgroundColor=none;endArrow=open;endFill=0;dashed=1;rounded=0;exitX=1;exitY=0.5;exitDx=0;exitDy=0;entryX=0;entryY=0.5;entryDx=0;entryDy=0;fontSize=10;strokeColor=#FFFFFF;fillColor=#FFFFFF;" parent="1" source="6rnab73OeRJo71UnPsnl-56" target="emIFQkIN_60Ksdg_QMY8-182" edge="1">
          <mxGeometry width="160" relative="1" as="geometry">
            <mxPoint x="414" y="1710" as="sourcePoint" />
            <mxPoint x="319" y="1703" as="targetPoint" />
          </mxGeometry>
        </mxCell>
      </root>
    </mxGraphModel>
  </diagram>
</mxfile>
